<mxfile host="Electron" agent="Mozilla/5.0 (Macintosh; Intel Mac OS X 10_15_7) AppleWebKit/537.36 (KHTML, like Gecko) draw.io/27.0.9 Chrome/134.0.6998.205 Electron/35.4.0 Safari/537.36" version="27.0.9">
  <diagram name="Page-1" id="SRrnxfF_BOjfW6Vjj3Za">
    <mxGraphModel dx="1216" dy="901" grid="1" gridSize="10" guides="1" tooltips="1" connect="1" arrows="1" fold="1" page="1" pageScale="1" pageWidth="850" pageHeight="1100" math="0" shadow="0">
      <root>
        <mxCell id="0" />
        <mxCell id="1" parent="0" />
        <mxCell id="2HzOCGtHsC_ALIlkOP-m-2" value="OrderService" style="swimlane;fontStyle=1;align=center;verticalAlign=top;childLayout=stackLayout;horizontal=1;startSize=26;horizontalStack=0;resizeParent=1;resizeParentMax=0;resizeLast=0;collapsible=1;marginBottom=0;whiteSpace=wrap;html=1;" vertex="1" parent="1">
          <mxGeometry x="70" y="197" width="190" height="80" as="geometry" />
        </mxCell>
        <mxCell id="2HzOCGtHsC_ALIlkOP-m-5" value="+ processNewOrder(): OrderId" style="text;strokeColor=none;fillColor=none;align=left;verticalAlign=top;spacingLeft=4;spacingRight=4;overflow=hidden;rotatable=0;points=[[0,0.5],[1,0.5]];portConstraint=eastwest;whiteSpace=wrap;html=1;" vertex="1" parent="2HzOCGtHsC_ALIlkOP-m-2">
          <mxGeometry y="26" width="190" height="54" as="geometry" />
        </mxCell>
        <mxCell id="2HzOCGtHsC_ALIlkOP-m-9" value="&lt;div&gt;&amp;lt;&amp;lt; Aggregate Root &amp;gt;&amp;gt;&lt;/div&gt;Orders" style="swimlane;fontStyle=1;align=center;verticalAlign=top;childLayout=stackLayout;horizontal=1;startSize=40;horizontalStack=0;resizeParent=1;resizeParentMax=0;resizeLast=0;collapsible=1;marginBottom=0;whiteSpace=wrap;html=1;" vertex="1" parent="1">
          <mxGeometry x="70" y="750" width="190" height="66" as="geometry" />
        </mxCell>
        <mxCell id="2HzOCGtHsC_ALIlkOP-m-10" value="+ create(): Orders" style="text;strokeColor=none;fillColor=none;align=left;verticalAlign=top;spacingLeft=4;spacingRight=4;overflow=hidden;rotatable=0;points=[[0,0.5],[1,0.5]];portConstraint=eastwest;whiteSpace=wrap;html=1;" vertex="1" parent="2HzOCGtHsC_ALIlkOP-m-9">
          <mxGeometry y="40" width="190" height="26" as="geometry" />
        </mxCell>
        <mxCell id="2HzOCGtHsC_ALIlkOP-m-11" value="&lt;div&gt;&amp;lt;&amp;lt; Interface &amp;gt;&amp;gt;&lt;/div&gt;&lt;div&gt;OrdersRepository&lt;/div&gt;" style="swimlane;fontStyle=1;align=center;verticalAlign=top;childLayout=stackLayout;horizontal=1;startSize=40;horizontalStack=0;resizeParent=1;resizeParentMax=0;resizeLast=0;collapsible=1;marginBottom=0;whiteSpace=wrap;html=1;" vertex="1" parent="1">
          <mxGeometry x="370" y="190" width="190" height="80" as="geometry" />
        </mxCell>
        <mxCell id="2HzOCGtHsC_ALIlkOP-m-12" value="&lt;div&gt;+ findById(OrderId id): Orders&lt;/div&gt;+ save(Orders orders): void" style="text;strokeColor=none;fillColor=none;align=left;verticalAlign=top;spacingLeft=4;spacingRight=4;overflow=hidden;rotatable=0;points=[[0,0.5],[1,0.5]];portConstraint=eastwest;whiteSpace=wrap;html=1;" vertex="1" parent="2HzOCGtHsC_ALIlkOP-m-11">
          <mxGeometry y="40" width="190" height="40" as="geometry" />
        </mxCell>
        <mxCell id="2HzOCGtHsC_ALIlkOP-m-13" value="&lt;div&gt;&amp;lt;&amp;lt; Interface &amp;gt;&amp;gt;&lt;/div&gt;&lt;div&gt;ProductRepository&lt;/div&gt;" style="swimlane;fontStyle=1;align=center;verticalAlign=top;childLayout=stackLayout;horizontal=1;startSize=40;horizontalStack=0;resizeParent=1;resizeParentMax=0;resizeLast=0;collapsible=1;marginBottom=0;whiteSpace=wrap;html=1;" vertex="1" parent="1">
          <mxGeometry x="370" y="300" width="190" height="90" as="geometry" />
        </mxCell>
        <mxCell id="2HzOCGtHsC_ALIlkOP-m-14" value="&lt;div&gt;+ findById(ProductId id): Product&lt;/div&gt;+ save(Product product): void" style="text;strokeColor=none;fillColor=none;align=left;verticalAlign=top;spacingLeft=4;spacingRight=4;overflow=hidden;rotatable=0;points=[[0,0.5],[1,0.5]];portConstraint=eastwest;whiteSpace=wrap;html=1;" vertex="1" parent="2HzOCGtHsC_ALIlkOP-m-13">
          <mxGeometry y="40" width="190" height="50" as="geometry" />
        </mxCell>
        <mxCell id="2HzOCGtHsC_ALIlkOP-m-15" value="&lt;div&gt;&amp;lt;&amp;lt; Interface &amp;gt;&amp;gt;&lt;/div&gt;&lt;div&gt;CouponRepository&lt;/div&gt;" style="swimlane;fontStyle=1;align=center;verticalAlign=top;childLayout=stackLayout;horizontal=1;startSize=40;horizontalStack=0;resizeParent=1;resizeParentMax=0;resizeLast=0;collapsible=1;marginBottom=0;whiteSpace=wrap;html=1;" vertex="1" parent="1">
          <mxGeometry x="370" y="410" width="190" height="90" as="geometry" />
        </mxCell>
        <mxCell id="2HzOCGtHsC_ALIlkOP-m-16" value="&lt;div&gt;+ findById(CouponId id): Coupon&lt;/div&gt;+ save(Coupon coupon): void" style="text;strokeColor=none;fillColor=none;align=left;verticalAlign=top;spacingLeft=4;spacingRight=4;overflow=hidden;rotatable=0;points=[[0,0.5],[1,0.5]];portConstraint=eastwest;whiteSpace=wrap;html=1;" vertex="1" parent="2HzOCGtHsC_ALIlkOP-m-15">
          <mxGeometry y="40" width="190" height="50" as="geometry" />
        </mxCell>
        <mxCell id="2HzOCGtHsC_ALIlkOP-m-18" value="" style="edgeStyle=orthogonalEdgeStyle;rounded=0;orthogonalLoop=1;jettySize=auto;html=1;" edge="1" parent="1" source="2HzOCGtHsC_ALIlkOP-m-5" target="2HzOCGtHsC_ALIlkOP-m-12">
          <mxGeometry relative="1" as="geometry" />
        </mxCell>
        <mxCell id="2HzOCGtHsC_ALIlkOP-m-19" style="edgeStyle=orthogonalEdgeStyle;rounded=0;orthogonalLoop=1;jettySize=auto;html=1;entryX=0.021;entryY=0.36;entryDx=0;entryDy=0;entryPerimeter=0;" edge="1" parent="1" source="2HzOCGtHsC_ALIlkOP-m-5" target="2HzOCGtHsC_ALIlkOP-m-14">
          <mxGeometry relative="1" as="geometry" />
        </mxCell>
        <mxCell id="2HzOCGtHsC_ALIlkOP-m-20" style="edgeStyle=orthogonalEdgeStyle;rounded=0;orthogonalLoop=1;jettySize=auto;html=1;entryX=-0.016;entryY=0.12;entryDx=0;entryDy=0;entryPerimeter=0;" edge="1" parent="1" source="2HzOCGtHsC_ALIlkOP-m-5" target="2HzOCGtHsC_ALIlkOP-m-16">
          <mxGeometry relative="1" as="geometry" />
        </mxCell>
        <mxCell id="2HzOCGtHsC_ALIlkOP-m-21" value="&lt;div&gt;&amp;lt;&amp;lt; Aggregate Root &amp;gt;&amp;gt;&lt;/div&gt;Product" style="swimlane;fontStyle=1;align=center;verticalAlign=top;childLayout=stackLayout;horizontal=1;startSize=40;horizontalStack=0;resizeParent=1;resizeParentMax=0;resizeLast=0;collapsible=1;marginBottom=0;whiteSpace=wrap;html=1;" vertex="1" parent="1">
          <mxGeometry x="310" y="750" width="190" height="66" as="geometry" />
        </mxCell>
        <mxCell id="2HzOCGtHsC_ALIlkOP-m-22" value="+ deduct(int count): Orders" style="text;strokeColor=none;fillColor=none;align=left;verticalAlign=top;spacingLeft=4;spacingRight=4;overflow=hidden;rotatable=0;points=[[0,0.5],[1,0.5]];portConstraint=eastwest;whiteSpace=wrap;html=1;" vertex="1" parent="2HzOCGtHsC_ALIlkOP-m-21">
          <mxGeometry y="40" width="190" height="26" as="geometry" />
        </mxCell>
        <mxCell id="2HzOCGtHsC_ALIlkOP-m-25" value="&lt;div&gt;&amp;lt;&amp;lt; Aggregate Root &amp;gt;&amp;gt;&lt;/div&gt;Coupon" style="swimlane;fontStyle=1;align=center;verticalAlign=top;childLayout=stackLayout;horizontal=1;startSize=40;horizontalStack=0;resizeParent=1;resizeParentMax=0;resizeLast=0;collapsible=1;marginBottom=0;whiteSpace=wrap;html=1;" vertex="1" parent="1">
          <mxGeometry x="540" y="750" width="190" height="66" as="geometry" />
        </mxCell>
        <mxCell id="2HzOCGtHsC_ALIlkOP-m-26" value="+ create(): Coupon" style="text;strokeColor=none;fillColor=none;align=left;verticalAlign=top;spacingLeft=4;spacingRight=4;overflow=hidden;rotatable=0;points=[[0,0.5],[1,0.5]];portConstraint=eastwest;whiteSpace=wrap;html=1;" vertex="1" parent="2HzOCGtHsC_ALIlkOP-m-25">
          <mxGeometry y="40" width="190" height="26" as="geometry" />
        </mxCell>
        <mxCell id="2HzOCGtHsC_ALIlkOP-m-27" value="&lt;div&gt;&amp;lt;&amp;lt; Interface &amp;gt;&amp;gt;&lt;/div&gt;&lt;div&gt;AlarmSender&lt;/div&gt;" style="swimlane;fontStyle=1;align=center;verticalAlign=top;childLayout=stackLayout;horizontal=1;startSize=40;horizontalStack=0;resizeParent=1;resizeParentMax=0;resizeLast=0;collapsible=1;marginBottom=0;whiteSpace=wrap;html=1;" vertex="1" parent="1">
          <mxGeometry x="370" y="520" width="190" height="90" as="geometry" />
        </mxCell>
        <mxCell id="2HzOCGtHsC_ALIlkOP-m-28" value="&lt;div&gt;+ sendAlarm(): void&lt;/div&gt;" style="text;strokeColor=none;fillColor=none;align=left;verticalAlign=top;spacingLeft=4;spacingRight=4;overflow=hidden;rotatable=0;points=[[0,0.5],[1,0.5]];portConstraint=eastwest;whiteSpace=wrap;html=1;" vertex="1" parent="2HzOCGtHsC_ALIlkOP-m-27">
          <mxGeometry y="40" width="190" height="50" as="geometry" />
        </mxCell>
        <mxCell id="2HzOCGtHsC_ALIlkOP-m-29" style="edgeStyle=orthogonalEdgeStyle;rounded=0;orthogonalLoop=1;jettySize=auto;html=1;entryX=-0.016;entryY=0.3;entryDx=0;entryDy=0;entryPerimeter=0;" edge="1" parent="1" source="2HzOCGtHsC_ALIlkOP-m-5" target="2HzOCGtHsC_ALIlkOP-m-28">
          <mxGeometry relative="1" as="geometry" />
        </mxCell>
        <mxCell id="2HzOCGtHsC_ALIlkOP-m-30" value="알람 처리는 비동기 실행 필요. 비동기 실행에는 메시지 큐 혹은 스프링 이벤트를 사용할 수 있음.&lt;div&gt;MSA 인 경우 메시지 큐 도입, 아직 규모가 작은 모놀리식의 경우 스프링 이벤트를 사용하여&amp;nbsp;&lt;/div&gt;&lt;div&gt;AFTER_COMMIT 애노테이션 처리.&lt;/div&gt;" style="text;html=1;align=center;verticalAlign=middle;resizable=0;points=[];autosize=1;strokeColor=none;fillColor=none;" vertex="1" parent="1">
          <mxGeometry x="230" y="620" width="470" height="60" as="geometry" />
        </mxCell>
        <mxCell id="2HzOCGtHsC_ALIlkOP-m-31" value="모놀리식인 경우 트랜잭션을 하나의 트랜잭션으로 묶어서 처리: @Transactional 애노테이션 사용&lt;div&gt;MSA 인 경우 SAGA 패턴 사용으로 메시지 큐 사용 및 Eventual consistency 적용.&lt;/div&gt;" style="text;html=1;align=center;verticalAlign=middle;resizable=0;points=[];autosize=1;strokeColor=none;fillColor=none;" vertex="1" parent="1">
          <mxGeometry x="70" y="133" width="480" height="40" as="geometry" />
        </mxCell>
        <mxCell id="2HzOCGtHsC_ALIlkOP-m-32" value="재고가 부족한 경우 모놀리식의 경우 트랜잭션을 하나로 묶었기 때문에 처리가 단순함.&lt;div&gt;MSA 의 경우 보상 트랜잭션 도입이 필요할 것으로 예상됨.(경험이 없기 때문에 현재 이론만 아는 상태)&lt;/div&gt;" style="text;html=1;align=center;verticalAlign=middle;resizable=0;points=[];autosize=1;strokeColor=none;fillColor=none;" vertex="1" parent="1">
          <mxGeometry x="570" y="303" width="500" height="40" as="geometry" />
        </mxCell>
        <mxCell id="2HzOCGtHsC_ALIlkOP-m-33" value="processNewOrder 메서드 흐름 정리&lt;div&gt;1.매개 변수를 통해서 Orders.create() 를 생성한다.&lt;/div&gt;&lt;div&gt;2.매개 변수를 통해서 Product 를 찾은 후 각 deduct 메서드를 사용해서 재고를 차감한다.&lt;/div&gt;&lt;div&gt;3.매개변수를 통해서 Coupon.create() 를 생성한다.&lt;/div&gt;&lt;div&gt;4.각 Repository.save 함수를 호출하여 DB 에 저장한다.&lt;/div&gt;&lt;div&gt;5.AlarmSender.sendAlarm 메서드를 통해서 알람을 전송한다.&lt;/div&gt;" style="text;html=1;align=center;verticalAlign=middle;resizable=0;points=[];autosize=1;strokeColor=none;fillColor=none;" vertex="1" parent="1">
          <mxGeometry x="50" y="830" width="440" height="100" as="geometry" />
        </mxCell>
        <mxCell id="2HzOCGtHsC_ALIlkOP-m-34" value="ProductRepository 및 CouponRepository 는 레이스 컨디션이 자주 걸릴 테이블들 임으로&amp;nbsp;&lt;div&gt;RDBMS 내에서 비관적 락 설정을 하거나 애플리케이션 자체에서 (JPA 사용 시) 비관적 락으로&lt;/div&gt;&lt;div&gt;설정한다.&lt;/div&gt;" style="text;html=1;align=center;verticalAlign=middle;resizable=0;points=[];autosize=1;strokeColor=none;fillColor=none;" vertex="1" parent="1">
          <mxGeometry x="570" y="425" width="470" height="60" as="geometry" />
        </mxCell>
      </root>
    </mxGraphModel>
  </diagram>
</mxfile>
